:SAMPLES-PER-SECOND 30
:FULLY-SPECIFIED
:DEGREES
789
root  69.1386 39.1311 -7.10692 -10.7084 -79.9607 4.97737
RightUpLeg  -6.39534 -26.1979 -9.60373
RightLeg  24.951 -1.284 -0.912792
RightFoot  -7.84434 -0.125161 2.35973
RightToes  -1.16417e-010 0 -3.6325e-017
Spine  20.9806 0.498153 0.755952
Spine1  7.35489 -0.202961 4.13342
HEad  -18.9368 1.44466 -0.836966
LeftShoulder1  9.42546 -16.4052 -41.0091
LeftArm  -4.05022 -36.9165 -17.2459
LeftForeArm  -170.136 -67.5652 -158.618
LeftHand  -0.244104 0.0205437 5.32207
RightShoulder  7.4311 13.2357 38.3258
RightArm  -9.91633 17.0571 37.3164
RightForeArm  158.698 58.4446 162.855
RightHand  -14.4251 27.8784 -47.5608
LeftUpLeg  -9.07778 13.6633 7.98796
LeftLeg  20.455 1.81077 1.12181
LeftFoot  -2.16886 0.514955 -6.24606
LeftToes  -2.09216e-011 1.96776e-011 -5.83545e-012
790
root  69.0396 39.4904 -7.1779 -13.1737 -80.1511 8.2802
RightUpLeg  -5.41443 -25.8649 -9.73918
RightLeg  21.2883 -1.58572 -0.58173
RightFoot  -6.05571 -0.137803 2.0926
RightToes  -1.16417e-010 0 -3.6325e-017
Spine  19.2834 0.10852 1.40146
Spine1  6.09071 -0.469186 3.91505
HEad  -16.8379 1.41001 -1.01553
LeftShoulder1  8.86745 -16.1276 -38.9883
LeftArm  -9.54177 -43.9813 -16.0783
LeftForeArm  -174.8 -74.0145 -148.659
LeftHand  -0.244104 0.0205437 5.32207
RightShoulder  6.89655 12.9716 35.8788
RightArm  -11.8207 25.6154 37.2134
RightForeArm  155.241 67.0865 154.992
RightHand  -15.2341 28.9446 -48.6144
LeftUpLeg  -7.19147 15.6639 7.66583
LeftLeg  15.4982 0.548539 0.22575
LeftFoot  0.178427 0.638277 -6.33625
LeftToes  -2.09216e-011 1.96776e-011 -5.83545e-012
791
root  69.0205 39.7466 -7.22278 -15.7341 -80.6047 11.3622
RightUpLeg  -4.51499 -22.8953 -10.1341
RightLeg  18.337 -4.14542 0.092961
RightFoot  -4.50853 -0.14105 1.8473
RightToes  -1.16417e-010 0 -3.6325e-017
Spine  18.8101 0.255634 2.63093
Spine1  3.13246 0.226172 2.62111
HEad  -14.1199 -0.0815851 -1.17512
LeftShoulder1  8.76356 -16.9721 -36.6621
LeftArm  -13.3548 -50.0153 -15.9706
LeftForeArm  162.682 -80.7915 -117.334
LeftHand  -0.244104 0.0205437 5.32207
RightShoulder  6.20498 11.8068 34.5527
RightArm  -14.4804 34.7012 35.5469
RightForeArm  123.178 78.3681 117.778
RightHand  -10.7915 22.5983 -42.6362
LeftUpLeg  -5.18292 14.0558 7.86013
LeftLeg  11.0499 3.00948 -0.841428
LeftFoot  2.17859 0.723321 -6.21444
LeftToes  -2.09216e-011 1.96776e-011 -5.83545e-012
792
root  69.0582 39.9105 -7.22834 -17.6459 -81.34 13.5214
RightUpLeg  -3.82415 -19.7019 -10.3686
RightLeg  16.0305 -6.61687 0.871667
RightFoot  -3.23001 -0.136253 1.61051
RightToes  -1.16417e-010 0 -3.6325e-017
Spine  18.0892 0.0964205 3.27582
Spine1  1.99242 0.113685 2.70778
HEad  -12.5866 -0.242547 -2.79563
LeftShoulder1  7.97346 -16.2539 -34.2781
LeftArm  -18.5139 -56.6285 -16.132
LeftForeArm  108.461 -80.1536 -52.6942
LeftHand  -0.244104 0.0205437 5.32207
RightShoulder  5.23892 11.2726 29.4728
RightArm  -15.6055 45.6203 36.8436
RightForeArm  46.4038 71.6849 31.1836
RightHand  -3.14008 6.43119 -27.5332
LeftUpLeg  -3.39242 10.6241 8.21996
LeftLeg  7.37232 7.42417 -1.90579
LeftFoot  3.63821 0.742604 -5.81407
LeftToes  -2.09216e-011 1.96776e-011 -5.83545e-012
793
root  69.1136 40.0129 -7.20832 -18.8002 -82.2926 14.9045
RightUpLeg  -3.49654 -17.4731 -10.2907
RightLeg  14.2209 -7.97587 1.55022
RightFoot  -2.18247 -0.122068 1.33968
RightToes  -1.16417e-010 0 -3.6325e-017
Spine  17.2238 -0.0397274 4.766
Spine1  1.74473 0.342225 1.68293
HEad  -11.6042 -0.749066 -3.90046
LeftShoulder1  7.15293 -15.4611 -31.6717
LeftArm  -24.3707 -62.4693 -18.2205
LeftForeArm  85.8384 -72.1168 -24.0997
LeftHand  -0.244104 0.0205437 5.32207
RightShoulder  4.31006 10.6984 24.1891
RightArm  -14.9788 56.6044 37.2027
RightForeArm  34.6323 47.6868 9.14335
RightHand  0.471601 -11.3094 -6.85282
LeftUpLeg  -2.20754 8.52069 8.45792
LeftLeg  4.73796 10.6213 -2.6191
LeftFoot  4.62433 0.735801 -5.44452
LeftToes  -2.09216e-011 1.96776e-011 -5.83545e-012
794
root  69.1636 40.0798 -7.19686 -19.5923 -83.0329 16.0843
RightUpLeg  -3.55282 -15.9875 -10.1183
RightLeg  12.8986 -8.82915 2.04415
RightFoot  -1.38773 -0.101442 1.0638
RightToes  -1.16417e-010 0 -3.6325e-017
Spine  16.2489 -0.0485664 6.93816
Spine1  1.93293 1.00895 -0.560325
HEad  -11.1569 -1.68194 -3.75969
LeftShoulder1  6.74821 -15.1363 -30.1421
LeftArm  -29.7417 -66.1855 -22.5448
LeftForeArm  76.5021 -64.7363 -15.973
LeftHand  -0.244104 0.0205437 5.32207
RightShoulder  3.53901 10.0261 19.7317
RightArm  -14.676 65.3378 36.2317
RightForeArm  30.4299 21.8084 3.62031
RightHand  -0.376857 -15.8406 3.95896
LeftUpLeg  -1.70917 7.73468 8.56314
LeftLeg  3.02104 12.2558 -3.08302
LeftFoot  5.37122 0.736678 -5.23587
LeftToes  -2.09216e-011 1.96776e-011 -5.83545e-012
795
root  69.196 40.1235 -7.2185 -19.255 -83.0585 16.1823
RightUpLeg  -3.67002 -14.882 -10.0542
RightLeg  12.0039 -9.95368 2.38283
RightFoot  -0.888502 -0.0871346 0.882755
RightToes  -1.16417e-010 0 -3.6325e-017
Spine  15.0669 -0.0431758 9.00982
Spine1  2.72827 1.7187 -3.08311
HEad  -11.6364 -2.56362 -2.42107
LeftShoulder1  6.61908 -15.1127 -29.4814
LeftArm  -31.9035 -67.6652 -28.9286
LeftForeArm  70.1139 -60.8664 -13.683
LeftHand  -0.244104 0.0205437 5.32207
RightShoulder  2.99872 9.3499 16.6955
RightArm  -23.1307 69.8827 33.7648
RightForeArm  30.3601 1.5017 2.91018
RightHand  -0.327376 -13.938 3.144
LeftUpLeg  -1.68722 7.49084 8.55224
LeftLeg  1.88211 12.6204 -3.40999
LeftFoot  5.99805 0.738579 -5.08188
LeftToes  -2.09216e-011 1.96776e-011 -5.83545e-012
796
root  69.2092 40.1471 -7.26824 -16.685 -82.324 13.8255
RightUpLeg  -3.41517 -14.0141 -10.0522
RightLeg  11.3312 -11.5331 2.67465
RightFoot  -0.646166 -0.0824221 0.835686
RightToes  -1.16417e-010 0 -3.6325e-017
Spine  14.0711 -0.0583278 9.98252
Spine1  3.53701 1.98604 -4.12218
HEad  -12.6672 -3.24577 -1.05864
LeftShoulder1  6.72744 -15.1548 -29.9889
LeftArm  -29.9858 -67.4051 -34.2554
LeftForeArm  67.152 -59.4508 -13.043
LeftHand  -0.244104 0.0205437 5.32207
RightShoulder  2.90317 9.26087 16.0458
RightArm  -28.3397 69.1402 31.2606
RightForeArm  30.4817 -6.16575 0.490543
RightHand  0.0158433 -11.1623 -1.58659
LeftUpLeg  -1.82438 7.3993 8.59582
LeftLeg  1.20711 12.0327 -3.57111
LeftFoot  6.4242 0.736054 -4.95846
LeftToes  -2.09216e-011 1.96776e-011 -5.83545e-012
797
root  69.2175 40.1526 -7.32332 -12.9946 -81.217 10.0028
RightUpLeg  -2.71771 -13.4654 -9.98864
RightLeg  10.7521 -13.1326 2.98287
RightFoot  -0.564333 -0.0805553 0.829924
RightToes  -1.16417e-010 0 -3.6325e-017
Spine  13.535 -0.0765067 9.8221
Spine1  4.08851 1.80308 -3.51908
HEad  -13.3768 -3.90462 0.0717714
LeftShoulder1  7.00289 -15.2794 -31.2278
LeftArm  -26.4044 -66.0052 -36.3679
LeftForeArm  66.1329 -58.1397 -12.3539
LeftHand  -0.244104 0.0205437 5.32207
RightShoulder  3.31639 9.80096 18.3923
RightArm  -29.2831 63.9498 28.5347
RightForeArm  30.6131 -2.02843 0.881402
RightHand  0.156519 -8.59376 -6.71456
LeftUpLeg  -1.95245 7.39409 8.7951
LeftLeg  1.0527 10.9473 -3.4955
LeftFoot  6.56691 0.743007 -4.96818
LeftToes  -2.09216e-011 1.96776e-011 -5.83545e-012
798
root  69.2361 40.1452 -7.36726 -9.97943 -80.131 6.66279
RightUpLeg  -1.90168 -13.2098 -9.87958
RightLeg  10.2982 -14.4081 3.2701
RightFoot  -0.569508 -0.0766574 0.78125
RightToes  -1.16417e-010 0 -3.6325e-017
Spine  13.3877 -0.126343 9.21869
Spine1  4.54039 1.46823 -2.47028
HEad  -13.6024 -4.61633 1.17028
LeftShoulder1  7.34235 -15.4247 -32.7403
LeftArm  -23.5611 -63.6983 -35.6705
LeftForeArm  64.1471 -55.8315 -11.2696
LeftHand  -0.244104 0.0205437 5.32207
RightShoulder  4.10021 10.5833 22.8696
RightArm  -24.3042 55.922 25.3381
RightForeArm  23.8441 9.01862 3.46227
RightHand  0.0655145 -6.30183 -11.7588
LeftUpLeg  -2.10237 7.38472 9.01702
LeftLeg  1.32286 9.86385 -3.20631
LeftFoot  6.48684 0.765834 -5.13324
LeftToes  -2.09216e-011 1.96776e-011 -5.83545e-012
799
root  69.2616 40.1322 -7.39849 -8.10729 -79.2474 4.5489
RightUpLeg  -1.31244 -13.0161 -9.76457
RightLeg  9.96733 -15.4309 3.45221
RightFoot  -0.623219 -0.0755106 0.755346
RightToes  -1.16417e-010 0 -3.6325e-017
Spine  13.1774 -0.21369 8.60338
Spine1  5.40629 1.15009 -1.68005
HEad  -14.143 -5.37858 1.92276
LeftShoulder1  7.56552 -15.2662 -34.2491
LeftArm  -21.8432 -60.7886 -33.7177
LeftForeArm  60.1666 -52.241 -9.87826
LeftHand  -0.244104 0.0205437 5.32207
RightShoulder  4.92658 11.2654 27.3291
RightArm  -15.8638 46.3489 22.7098
RightForeArm  11.5774 22.0439 4.77625
RightHand  -0.580226 -1.90085 -18.3325
LeftUpLeg  -2.38611 7.31342 9.11708
LeftLeg  1.7873 9.0266 -2.83097
LeftFoot  6.29321 0.794244 -5.36572
LeftToes  -2.09216e-011 1.96776e-011 -5.83545e-012
800
root  69.2785 40.1188 -7.41735 -6.86072 -78.6392 3.28589
RightUpLeg  -1.04614 -12.7432 -9.5977
RightLeg  9.65985 -16.285 3.51393
RightFoot  -0.703917 -0.0852125 0.865442
RightToes  -1.16417e-010 0 -3.6325e-017
Spine  12.747 -0.265896 7.95851
Spine1  6.57422 0.873313 -1.015
HEad  -15.1761 -6.00029 2.32572
LeftShoulder1  7.63508 -14.7916 -35.6516
LeftArm  -20.3735 -57.2572 -31.4716
LeftForeArm  55.7867 -47.4507 -8.29826
LeftHand  -0.244104 0.0205437 5.32207
RightShoulder  5.50108 11.6618 30.3156
RightArm  -13.3688 36.0428 21.6888
RightForeArm  7.29296 32.2162 6.61221
RightHand  -1.9471 3.71439 -24.8915
LeftUpLeg  -2.84978 7.31765 9.14647
LeftLeg  2.33608 8.38886 -2.5162
LeftFoot  6.01018 0.812815 -5.56466
LeftToes  -2.09216e-011 1.96776e-011 -5.83545e-012
801
root  69.2772 40.1071 -7.41192 -5.82416 -78.3466 2.3618
RightUpLeg  -0.956447 -12.4884 -9.3957
RightLeg  9.3415 -16.8253 3.51929
RightFoot  -0.803625 -0.108222 1.11376
RightToes  -1.16417e-010 0 -3.6325e-017
Spine  12.466 -0.273406 7.30537
Spine1  7.24875 0.66526 -0.48015
HEad  -15.8114 -6.37952 2.86789
LeftShoulder1  7.75356 -14.4316 -37.1081
LeftArm  -18.3701 -52.5239 -29.0006
LeftForeArm  51.9103 -41.645 -6.66739
LeftHand  -0.244104 0.0205437 5.32207
RightShoulder  5.77349 11.6824 32.0723
RightArm  -10.3741 25.9445 22.8859
RightForeArm  6.77841 36.6157 7.90737
RightHand  -2.78866 6.14926 -27.9272
LeftUpLeg  -3.36509 7.50676 9.19018
LeftLeg  2.96976 7.88562 -2.3021
LeftFoot  5.61627 0.806713 -5.63841
LeftToes  -2.09216e-011 1.96776e-011 -5.83545e-012
802
root  69.2541 40.0997 -7.3639 -5.12919 -78.2717 1.75004
RightUpLeg  -0.845722 -12.3589 -9.30683
RightLeg  9.06599 -17.0065 3.528
RightFoot  -0.904354 -0.136369 1.42501
RightToes  -1.16417e-010 0 -3.6325e-017
Spine  12.4673 -0.360215 6.73991
Spine1  7.30191 0.474976 -0.294943
HEad  -15.4437 -6.19549 3.89164
LeftShoulder1  8.07065 -14.4172 -38.8425
LeftArm  -15.2472 -46.4698 -26.1835
LeftForeArm  47.0521 -34.7517 -5.05498
LeftHand  -0.244104 0.0205437 5.32207
RightShoulder  5.91172 11.4473 33.5921
RightArm  -5.59145 16.9594 25.258
RightForeArm  5.79416 33.6538 7.08961
RightHand  -2.49581 5.31809 -26.8433
LeftUpLeg  -3.74353 7.68682 9.15869
LeftLeg  3.61601 7.59799 -2.09004
LeftFoot  5.1403 0.774304 -5.55989
LeftToes  -2.09216e-011 1.96776e-011 -5.83545e-012
803
root  69.2089 40.0992 -7.26604 -4.95545 -78.2584 1.62727
RightUpLeg  -0.667585 -12.3515 -9.42497
RightLeg  8.83267 -16.9604 3.55403
RightFoot  -0.958431 -0.16611 1.75542
RightToes  -1.16417e-010 0 -3.6325e-017
Spine  12.3536 -0.568507 6.16324
Spine1  7.52935 0.184201 -0.239278
HEad  -14.548 -5.37934 4.61287
LeftShoulder1  8.48414 -14.5149 -40.7894
LeftArm  -10.3364 -39.9558 -23.3765
LeftForeArm  39.5504 -26.4619 -3.80417
LeftHand  -0.244104 0.0205437 5.32207
RightShoulder  6.09042 11.2688 35.257
RightArm  -1.88637 9.84492 27.6159
RightForeArm  5.16663 23.8005 5.6355
RightHand  -1.78097 3.46618 -23.1911
LeftUpLeg  -3.95542 7.61819 8.9381
LeftLeg  4.15362 7.61879 -1.81213
LeftFoot  4.63873 0.737229 -5.4516
LeftToes  -2.09216e-011 1.96776e-011 -5.83545e-012
